# xmcd
# 
# Track frame offsets:
#	150
#	14000
#	26738
#	41475
#	55163
#	70513
#	82838
#	95750
#	111400
#	126463
#	139288
#	152038
#	164688
#	177725
#	190725
#	204063
#	217450
#	231688
#
# Disc length: 3286 seconds
#
# Revision: 1
# Processed by: cddbd v1.4PL0 Copyright (c) Steve Scherf et al.
# Submitted via: Audio-CD-Archiv 2.10.438
#
DISCID=140cd412
DTITLE=John Byrd and Walter Taylor - (1929 - 1931)
DYEAR=1900
DGENRE=blues
TTITLE0=John Byrd - That White Mule Of Sin
TTITLE1=John Byrd - The Heavenly Airplane
TTITLE2=John Byrd - Norrow Face Blues
TTITLE3=John Byrd - Wasn´t It Sad About Lemon
TTITLE4=John Byrd - Insurance Man Blues
TTITLE5=John Byrd - Overall Cheater Blues
TTITLE6=John Byrd - Disconnected Blues
TTITLE7=John Byrd - Billy Goat Blues
TTITLE8=John Byrd - Old Timbrook Blues
TTITLE9=Walter Taylor - Thirty-Eight And Plus
TTITLE10=Walter Taylor - Deal Rag
TTITLE11=Walter Taylor - Corrine Corrine
TTITLE12=Walter Taylor - Yo-Yo Blues
TTITLE13=Walter Taylor - Broadcasting Blues
TTITLE14=Walter Taylor - You Rascal, You
TTITLE15=Walter Taylor - Diamond Ring Blues
TTITLE16=Walter Taylor - Coal Camp Blues
TTITLE17=Walter Taylor - Do You Love Me Blues
EXTD=
EXTT0=
EXTT1=
EXTT2=
EXTT3=
EXTT4=
EXTT5=
EXTT6=
EXTT7=
EXTT8=
EXTT9=
EXTT10=
EXTT11=
EXTT12=
EXTT13=
EXTT14=
EXTT15=
EXTT16=
EXTT17=
PLAYORDER=
